<?xml version="1.0" standalone="no"?>
<!DOCTYPE svg PUBLIC "-//W3C//DTD SVG 20010904//EN"
 "http://www.w3.org/TR/2001/REC-SVG-20010904/DTD/svg10.dtd">
<svg version="1.0" xmlns="http://www.w3.org/2000/svg"
 width="1600.000000pt" height="1203.000000pt" viewBox="0 0 1600.000000 1203.000000"
 preserveAspectRatio="xMidYMid meet">

<g transform="translate(0.000000,1203.000000) scale(0.100000,-0.100000)"
fill="#000000" stroke="none">
<path d="M0 6015 l0 -6015 8000 0 8000 0 0 6015 0 6015 -8000 0 -8000 0 0
-6015z m8588 3995 c20 -11 60 -40 87 -65 43 -38 47 -45 28 -45 -24 0 -31 -14
-13 -25 16 -10 13 -85 -4 -85 -16 0 -161 -73 -248 -124 -121 -72 -157 -98
-618 -446 -183 -139 -404 -279 -510 -324 -25 -11 -50 -24 -57 -30 -6 -6 -28
-56 -48 -110 -19 -55 -39 -104 -44 -110 -5 -6 -18 -34 -29 -61 -11 -28 -34
-79 -52 -115 -17 -36 -38 -83 -46 -104 -30 -81 -99 -216 -111 -216 -7 0 -13
-4 -13 -9 0 -5 12 -8 27 -8 21 0 50 21 118 85 49 47 108 99 131 116 51 39 345
258 399 298 124 90 254 193 343 271 101 87 256 267 294 340 22 44 34 45 18 2
-8 -22 -8 -26 4 -22 10 4 12 0 9 -14 -3 -11 -9 -22 -14 -25 -5 -3 -9 -11 -9
-17 0 -7 11 2 25 18 25 30 25 29 -2 -21 -15 -28 -41 -71 -57 -95 -33 -49 -287
-307 -354 -359 -58 -45 -237 -177 -359 -265 -303 -217 -455 -346 -545 -463
-22 -29 -43 -50 -45 -48 -3 2 7 25 22 50 20 34 23 45 11 40 -9 -3 -16 -10 -16
-15 0 -5 -4 -9 -9 -9 -6 0 -4 12 4 27 10 20 11 31 3 40 -7 9 -7 17 1 27 8 10
8 16 -2 24 -16 13 -14 104 3 158 7 21 24 64 38 94 13 30 35 80 47 110 13 30
43 100 67 155 25 55 55 131 68 170 25 76 60 141 60 113 0 -11 7 -15 25 -13 14
1 25 -1 25 -6 0 -5 7 -6 15 -3 12 5 12 8 1 20 -13 12 -14 65 -7 281 1 14 12
28 29 37 39 22 22 19 -33 -4 -57 -25 -81 -25 -90 -2 -4 9 -11 100 -14 202 -6
157 -11 194 -30 245 -27 74 -38 117 -22 95 7 -9 11 -10 11 -3 0 6 -5 15 -10
18 -6 4 -1 14 12 24 37 27 189 93 229 98 40 6 45 1 113 -119 40 -72 72 -105
131 -133 70 -34 190 -51 219 -31 12 8 53 37 91 65 208 151 384 269 443 297 98
46 201 56 260 24z m187 -144 c17 -14 80 -62 140 -107 461 -345 599 -488 674
-695 38 -105 49 -212 61 -564 20 -574 55 -961 140 -1520 43 -281 128 -729 162
-855 6 -22 17 -67 24 -100 19 -87 50 -212 68 -275 17 -60 20 -88 9 -76 -5 4
-13 33 -20 64 -6 31 -21 91 -33 132 -12 41 -24 87 -27 103 -3 15 -8 29 -12 31
-8 5 -5 -46 5 -86 4 -19 2 -28 -6 -28 -7 0 -10 -7 -7 -15 4 -8 2 -17 -2 -19
-9 -6 -18 21 -65 214 -57 233 -94 397 -115 515 -11 61 -27 146 -35 190 -42
217 -91 567 -125 890 -25 234 -47 608 -57 950 -8 314 -32 424 -120 553 -66 98
-174 204 -384 377 -178 148 -298 252 -273 241 6 -3 22 -2 35 3 15 7 17 10 7
10 -9 1 -25 13 -34 29 -10 15 -27 35 -39 44 -11 10 -16 18 -11 18 6 0 24 -11
40 -24z m560 -1058 c14 -6 25 -16 25 -22 0 -6 -14 -78 -30 -161 -55 -268 -80
-516 -81 -810 -1 -144 1 -270 4 -280 3 -11 11 -74 17 -140 6 -66 26 -210 45
-320 56 -328 92 -543 111 -665 16 -94 19 -166 18 -400 -1 -195 -6 -307 -15
-355 l-14 -70 -40 3 c-22 2 -41 5 -43 6 -1 2 8 59 20 127 27 159 30 395 5 549
-9 58 -23 146 -31 195 -8 50 -31 185 -51 300 -89 512 -99 616 -99 1050 0 289
12 525 34 655 16 93 60 324 65 338 6 15 27 15 60 0z m-1037 -85 c5 -10 13
-130 16 -268 4 -137 13 -437 21 -665 8 -228 19 -559 25 -735 44 -1402 50
-1500 95 -1718 28 -137 92 -328 114 -342 4 -2 18 -1 32 2 l24 7 -23 6 c-22 5
-19 9 34 48 100 74 177 111 412 199 593 220 652 250 797 405 86 92 96 106 103
147 l6 36 6 -30 c4 -24 10 -29 29 -27 19 3 22 0 16 -17 -3 -12 -2 -21 3 -21 5
0 7 -11 4 -25 -2 -15 0 -25 7 -25 6 0 11 -5 11 -11 0 -5 -4 -7 -10 -4 -17 10
-11 -7 7 -20 18 -13 9 -40 -10 -28 -7 4 -5 -1 3 -11 18 -23 17 -146 -2 -158
-10 -5 -8 -8 5 -8 20 0 22 -11 5 -29 -11 -11 -9 -12 10 -6 28 8 28 2 -5 -43
-36 -51 -85 -94 -172 -154 -107 -73 -228 -127 -477 -213 -353 -122 -501 -188
-620 -277 -74 -56 -92 -52 -153 35 -30 44 -32 51 -20 73 10 20 11 29 1 45 -10
15 -10 19 0 19 8 1 5 6 -6 15 -14 11 -22 11 -37 2 -13 -8 -15 -13 -6 -19 9 -6
9 -8 -1 -8 -21 0 -42 32 -87 139 -83 191 -119 367 -140 676 -9 134 -35 970
-35 1124 0 165 -7 163 -78 -17 -87 -221 -102 -285 -102 -441 0 -149 16 -234
103 -531 150 -516 222 -850 188 -880 -18 -15 -26 -51 -21 -95 3 -27 -2 -85
-10 -128 -14 -70 -17 -77 -35 -72 -64 20 -104 17 -192 -14 -101 -35 -131 -37
-217 -15 -73 19 -116 15 -192 -20 -71 -33 -149 -35 -214 -5 -61 27 -89 27
-136 -4 -21 -14 -57 -31 -79 -37 -35 -10 -48 -9 -100 11 -53 20 -75 23 -186
20 -122 -2 -130 -1 -208 30 -64 25 -81 36 -83 53 0 12 -2 56 -3 98 -1 70 -4
80 -29 103 -15 14 -32 22 -38 19 -7 -5 -9 0 -5 12 3 10 14 53 26 94 11 41 50
151 86 243 123 318 137 394 160 852 15 305 17 322 41 478 16 96 16 99 -9 205
-14 59 -33 145 -42 192 -9 47 -21 104 -26 127 -5 23 -9 52 -8 65 1 23 1 23 9
-2 6 -19 8 -11 9 33 1 32 6 67 11 78 6 11 8 25 3 32 -5 8 -9 4 -14 -13 -7 -25
-7 -25 -8 -2 -1 16 6 26 19 29 11 3 40 35 65 72 47 72 174 199 295 296 168
134 275 231 336 306 36 43 69 79 73 79 5 0 16 -9 25 -19 16 -18 16 -21 1 -50
-45 -87 -208 -251 -431 -431 -156 -127 -250 -232 -299 -336 -30 -64 -31 -51
13 -259 20 -91 32 -130 42 -130 7 0 17 11 20 26 13 48 131 268 196 364 117
176 194 257 431 457 359 302 437 376 535 504 l39 52 -7 221 c-7 232 -4 251 37
251 10 0 22 -8 27 -17z m587 -137 c18 -13 18 -17 -18 -132 -20 -66 -43 -150
-52 -189 -71 -330 -58 -763 39 -1272 94 -491 131 -704 147 -853 13 -123 17
-539 5 -623 l-8 -58 -36 3 -37 3 3 50 c1 28 3 156 4 285 3 264 -12 392 -87
745 -14 67 -46 247 -86 480 -22 131 -45 324 -54 455 -8 118 -8 485 0 605 10
143 58 366 105 491 11 27 45 32 75 10z m-2008 -458 c-3 -7 -5 -2 -5 12 0 14 2
19 5 13 2 -7 2 -19 0 -25z m23 -730 c0 -38 -5 -34 -13 10 -4 21 -3 31 3 27 6
-3 10 -20 10 -37z m3197 -1900 c-3 -8 -6 -5 -6 6 -1 11 2 17 5 13 3 -3 4 -12
1 -19z m-1704 -835 c-7 -2 -19 -2 -25 0 -7 3 -2 5 12 5 14 0 19 -2 13 -5z
m795 -631 c2 -31 -2 -60 -9 -68 -9 -11 -52 -14 -220 -14 l-209 0 0 -170 0
-170 190 0 190 0 0 -70 0 -70 -190 0 -190 0 2 -167 3 -168 215 -5 215 -5 3
-62 c3 -58 1 -63 -20 -68 -13 -3 -147 -4 -298 -3 l-275 3 -3 547 c-2 503 -1
547 14 550 10 2 144 1 298 -2 l281 -5 3 -53z m-2340 49 c9 -5 12 -25 10 -62
l-3 -54 -137 -3 -138 -3 0 -473 c0 -533 8 -486 -81 -486 l-49 0 -1 433 c0 237
-1 453 -2 480 l-1 47 -43 0 c-27 0 -42 4 -38 10 3 6 24 10 46 10 36 0 39 2 25
15 -8 8 -26 15 -41 15 -16 0 -24 4 -20 11 4 6 13 8 21 5 8 -3 11 0 7 10 -3 8
1 14 8 14 11 0 11 3 -1 10 -20 13 -28 12 155 20 248 10 269 10 283 1z m967 -5
c70 -18 107 -39 145 -82 52 -60 72 -117 73 -211 0 -71 -4 -90 -29 -140 -32
-64 -94 -114 -165 -133 -21 -6 -39 -14 -39 -19 0 -5 12 -26 26 -47 15 -21 54
-84 87 -139 33 -55 72 -118 87 -140 73 -110 100 -157 95 -165 -4 -6 -40 -10
-81 -10 -62 0 -77 3 -92 20 -19 22 -60 92 -177 300 -105 185 -91 172 -177 174
l-73 1 -3 -234 c-1 -156 -6 -239 -14 -248 -13 -16 -128 -7 -140 11 -9 13 -11
1037 -2 1060 5 14 34 16 218 16 144 0 227 -4 261 -14z m2045 -216 l5 -225 34
-3 c58 -6 75 5 141 89 36 45 88 108 115 140 28 32 66 78 85 103 35 45 57 60
46 30 -3 -9 -2 -12 5 -9 5 4 7 14 4 24 -5 17 27 61 45 61 5 0 -3 -12 -17 -26
-18 -18 -22 -28 -14 -33 8 -5 5 -13 -9 -26 -11 -10 -20 -15 -20 -10 0 12 -30
-16 -42 -39 -11 -20 -10 -20 9 -3 24 21 43 22 43 2 0 -8 -4 -15 -10 -15 -6 0
-9 -3 -9 -7 1 -5 1 -23 0 -42 -1 -25 -5 -32 -15 -28 -11 4 -13 1 -9 -10 5 -13
11 -11 34 14 15 17 31 37 35 44 5 8 24 25 43 38 l34 24 -28 -39 c-16 -21 -45
-58 -65 -80 -19 -23 -57 -69 -85 -104 -27 -34 -67 -82 -88 -107 l-38 -45 23
-38 c27 -45 184 -251 228 -299 31 -34 72 -93 67 -97 -2 -2 -19 16 -38 40 -19
25 -40 46 -47 46 -7 0 -11 4 -8 9 3 4 -4 17 -16 27 -19 17 -21 17 -15 2 9 -25
0 -22 -14 3 -9 17 -8 20 3 14 7 -4 2 3 -12 14 -29 24 -49 28 -26 5 19 -18 20
-28 5 -57 -9 -20 -9 -20 4 -4 13 15 16 15 27 2 8 -9 8 -15 2 -15 -6 0 -14 -10
-18 -22 -7 -23 20 -53 39 -41 6 4 8 0 4 -10 -3 -9 -2 -19 3 -22 4 -3 11 1 13
7 4 9 6 10 6 1 2 -20 -21 -27 -31 -9 -5 9 -14 16 -19 16 -6 0 6 -24 27 -52 49
-68 56 -75 80 -81 18 -4 18 -5 -1 -6 -28 -1 -43 13 -114 109 -35 47 -72 94
-83 105 -10 11 -63 77 -118 148 l-100 127 -44 0 c-31 0 -46 -5 -50 -16 -3 -9
-6 -121 -6 -250 l0 -234 -69 0 c-57 0 -69 3 -73 18 -7 27 -9 972 -2 1025 l6
48 66 -3 67 -3 5 -225z m581 152 c-5 -10 -18 -25 -27 -33 -11 -9 -9 -2 6 19
26 35 36 42 21 14z m-130 -55 c-10 -9 -11 -8 -5 6 3 10 9 15 12 12 3 -3 0 -11
-7 -18z m134 -865 c-6 -7 -35 18 -35 31 0 5 9 2 20 -8 11 -10 18 -20 15 -23z
m-3481 -348 c9 -3 16 -11 16 -16 0 -6 7 -24 15 -41 8 -18 23 -57 34 -87 11
-30 34 -93 51 -140 18 -47 37 -101 42 -120 6 -19 14 -40 19 -46 9 -11 39 -101
39 -117 0 -5 -16 -7 -36 -5 -35 3 -38 6 -58 63 -21 59 -22 60 -66 67 -68 10
-203 9 -220 -2 -8 -5 -24 -35 -35 -67 -19 -53 -24 -58 -53 -61 -23 -2 -32 1
-32 11 0 8 23 75 50 148 28 74 67 179 86 234 48 135 63 168 77 177 15 9 50 10
71 2z m751 -13 c85 -38 124 -123 60 -129 -26 -2 -36 4 -63 37 -26 32 -40 41
-77 47 -53 8 -97 -7 -125 -44 -28 -35 -25 -59 13 -97 25 -25 48 -36 93 -45 81
-16 175 -67 194 -105 19 -40 16 -116 -6 -154 -47 -79 -210 -103 -312 -47 -78
43 -117 117 -69 130 39 10 46 7 72 -33 27 -44 67 -61 141 -61 54 0 104 43 104
88 0 52 -32 79 -128 108 -114 34 -165 64 -187 110 -32 67 -2 152 69 195 42 26
165 26 221 0z m465 -100 c0 -85 4 -122 13 -129 13 -11 224 -15 260 -5 15 4 17
19 17 129 l0 124 40 0 40 0 0 -289 c0 -281 -1 -290 -20 -296 -11 -3 -29 -4
-40 0 -18 6 -20 17 -22 128 l-3 122 -140 0 -140 0 -3 -122 c-3 -131 -7 -140
-58 -127 l-24 6 0 289 0 289 40 0 40 0 0 -119z m760 -172 l0 -290 -37 3 -38 3
-3 275 c-1 151 0 280 3 287 2 7 20 13 40 13 l35 0 0 -291z m671 275 c68 -20
139 -89 163 -159 37 -110 12 -256 -55 -323 -77 -77 -177 -105 -284 -79 -84 21
-142 65 -180 139 -24 45 -29 65 -29 138 -1 59 4 99 17 130 21 56 101 137 153
155 53 19 149 18 215 -1z m-3151 -24 l0 -30 -112 1 c-90 1 -104 3 -68 10 25 4
73 8 108 8 100 1 77 23 -38 34 -19 2 -2 5 38 5 l72 2 0 -30z m3798 -124 c56
-85 102 -158 102 -162 0 -12 -69 70 -70 82 0 14 -69 88 -75 82 -3 -2 4 -14 15
-26 11 -12 20 -29 20 -38 0 -10 3 -14 7 -11 3 4 19 -19 35 -50 16 -32 35 -64
43 -73 18 -20 20 -37 2 -18 -7 7 -47 66 -90 131 -44 67 -84 117 -93 117 -13 0
-15 -14 -14 -92 1 -51 1 -153 1 -226 l-1 -133 -27 3 -28 3 -3 283 -2 282 38 0
39 0 101 -154z m272 144 c0 -5 -2 -10 -4 -10 -3 0 -8 5 -11 10 -3 6 -1 10 4
10 6 0 11 -4 11 -10z m-4097 -270 c3 -10 2 -21 -1 -24 -10 -11 -164 -7 -157 4
3 6 37 10 76 10 39 0 69 4 69 10 0 6 -10 10 -22 10 -18 0 -20 2 -9 9 19 12 38
4 44 -19z m3971 -96 c5 -14 4 -15 -9 -4 -17 14 -19 20 -6 20 5 0 12 -7 15 -16z
m-20 -45 c25 -42 16 -45 -12 -3 -12 19 -19 34 -14 34 4 0 16 -14 26 -31z m41
-60 c11 -16 1 -19 -13 -3 -7 8 -8 14 -3 14 5 0 13 -5 16 -11z m39 -56 c11 -13
16 -23 13 -23 -10 0 -37 31 -37 42 0 6 1 9 3 7 1 -2 11 -14 21 -26z m-583
-790 c375 -5 574 -10 524 -15 -44 -4 -96 -10 -115 -14 l-35 -8 40 -6 40 -7
-34 -2 c-20 0 -31 -5 -25 -9 20 -18 95 -32 169 -32 l78 0 -5 45 c-3 25 -2 45
3 45 5 0 9 -22 9 -48 l0 -49 -217 -6 c-282 -9 -3546 -7 -3893 2 -146 4 -227 8
-180 10 81 2 187 17 145 20 -19 2 -19 2 -2 15 9 7 17 18 17 24 0 12 -188 27
-219 17 -12 -4 -21 -2 -21 4 0 12 291 15 2001 19 614 1 1388 -1 1720 -5z"/>
<path d="M8372 9878 c-7 -7 -12 -25 -12 -40 0 -21 6 -29 24 -34 40 -10 66 4
66 35 0 32 -16 51 -45 51 -12 0 -26 -5 -33 -12z"/>
<path d="M8200 9762 c-18 -14 -21 -25 -17 -44 9 -33 34 -42 63 -23 28 18 30
32 8 63 -18 27 -25 27 -54 4z"/>
<path d="M8027 9643 c-12 -12 -7 -50 8 -63 35 -29 92 22 63 57 -11 14 -60 18
-71 6z"/>
<path d="M7878 9529 c-22 -12 -23 -52 -2 -69 21 -19 68 -1 72 26 3 23 -21 54
-41 54 -7 0 -20 -5 -29 -11z"/>
<path d="M7716 9404 c-9 -8 -16 -22 -16 -29 0 -18 28 -45 46 -45 16 0 54 35
54 49 0 12 -40 41 -57 41 -6 0 -19 -7 -27 -16z"/>
<path d="M7558 9303 c-10 -2 -19 -12 -19 -21 -4 -52 17 -78 55 -68 23 6 26 12
26 46 0 22 -4 40 -9 40 -5 0 -15 2 -23 4 -7 2 -21 2 -30 -1z"/>
<path d="M7378 9179 c-21 -12 -24 -59 -6 -77 7 -7 21 -12 33 -12 46 0 62 57
23 84 -26 19 -27 19 -50 5z"/>
<path d="M9941 6054 c0 -11 3 -14 6 -6 3 7 2 16 -1 19 -3 4 -6 -2 -5 -13z"/>
<path d="M9931 5984 c0 -11 3 -14 6 -6 3 7 2 16 -1 19 -3 4 -6 -2 -5 -13z"/>
<path d="M8215 8119 c-8 -24 -279 -298 -393 -398 -101 -88 -139 -166 -181
-380 -17 -83 -21 -141 -21 -295 1 -308 27 -461 154 -881 122 -403 179 -614
215 -802 19 -100 16 -113 -29 -113 -26 0 -28 4 -49 103 -21 94 -80 306 -149
537 -143 475 -162 547 -186 720 -26 197 -34 539 -16 700 24 206 2 183 -50 -55
-67 -303 -51 -771 46 -1365 36 -223 53 -375 61 -537 l6 -142 -26 -7 c-51 -12
-53 -6 -60 143 -4 76 -16 194 -27 263 -20 126 -44 275 -60 385 -63 408 -78
943 -34 1248 10 72 -13 36 -30 -45 -47 -234 -59 -441 -51 -848 10 -461 -9
-667 -81 -914 -36 -124 -94 -266 -108 -266 -6 0 -21 8 -34 18 l-22 17 25 75
c26 77 58 195 96 355 20 84 22 128 29 690 6 461 12 623 24 701 8 56 16 105 18
110 2 5 -1 11 -6 13 -16 5 -142 -245 -185 -365 -56 -157 -69 -231 -81 -464
-35 -687 -36 -696 -95 -885 -19 -60 -51 -148 -71 -195 -67 -155 -105 -262
-102 -283 2 -17 16 -24 83 -39 91 -20 123 -16 178 20 54 36 137 42 200 13 60
-27 68 -27 144 9 77 37 141 39 197 9 51 -27 108 -22 205 20 89 38 110 38 202
5 84 -30 124 -29 211 10 31 14 79 28 107 32 34 4 51 11 51 20 0 17 -79 324
-150 584 -96 350 -110 407 -125 511 -27 192 -14 457 29 589 23 68 46 132 61
165 7 17 25 59 40 95 15 36 42 102 61 147 l34 83 -10 297 c-5 164 -10 364 -10
444 0 114 -3 149 -14 158 -11 10 -16 8 -21 -10z"/>
<path d="M7675 8061 c-3 -5 -1 -12 5 -16 5 -3 10 1 10 9 0 18 -6 21 -15 7z"/>
<path d="M6895 7130 c3 -5 8 -10 11 -10 2 0 4 5 4 10 0 6 -5 10 -11 10 -5 0
-7 -4 -4 -10z"/>
<path d="M9847 5482 c-33 -37 -11 -76 39 -70 37 4 51 29 36 62 -14 31 -51 35
-75 8z"/>
<path d="M9685 5364 c-9 -9 -15 -28 -13 -43 2 -21 9 -27 35 -29 27 -3 35 1 44
21 23 50 -28 89 -66 51z"/>
<path d="M9488 5264 c-14 -30 -1 -58 28 -62 40 -5 67 44 39 72 -24 24 -54 20
-67 -10z"/>
<path d="M9302 5208 c-29 -29 -3 -78 42 -78 19 0 32 48 19 69 -13 20 -45 25
-61 9z"/>
<path d="M9104 5136 c-3 -8 -4 -25 -2 -38 2 -19 9 -23 38 -23 33 0 35 2 35 35
0 32 -3 35 -33 38 -21 2 -34 -2 -38 -12z"/>
<path d="M8901 5066 c-20 -23 -5 -65 24 -72 42 -10 57 1 53 43 -3 34 -6 38
-34 41 -19 2 -36 -3 -43 -12z"/>
<path d="M8720 4964 c-14 -36 3 -64 38 -64 33 0 52 16 52 45 0 29 -19 45 -52
45 -21 0 -31 -6 -38 -26z"/>
<path d="M8600 4821 c0 -5 5 -13 10 -16 6 -3 10 -2 10 4 0 5 -4 13 -10 16 -5
3 -10 2 -10 -4z"/>
<path d="M6463 3845 c0 -33 2 -45 4 -27 2 18 2 45 0 60 -2 15 -4 0 -4 -33z"/>
<path d="M6464 3430 c0 -69 1 -97 3 -62 2 34 2 90 0 125 -2 34 -3 6 -3 -63z"/>
<path d="M6463 3105 c0 -27 2 -38 4 -22 2 15 2 37 0 50 -2 12 -4 0 -4 -28z"/>
<path d="M6460 3041 c0 -5 5 -13 10 -16 6 -3 10 -2 10 4 0 5 -4 13 -10 16 -5
3 -10 2 -10 -4z"/>
<path d="M7492 3784 l3 -179 125 0 c115 0 130 2 175 25 82 42 117 138 80 221
-38 86 -72 101 -248 107 l-137 5 2 -179z"/>
<path d="M10215 3900 c-3 -5 -1 -10 4 -10 6 0 11 5 11 10 0 6 -2 10 -4 10 -3
0 -8 -4 -11 -10z"/>
<path d="M10210 3866 c7 -7 13 -7 20 0 6 6 3 10 -10 10 -13 0 -16 -4 -10 -10z"/>
<path d="M10215 3340 c3 -5 8 -10 11 -10 2 0 4 5 4 10 0 6 -5 10 -11 10 -5 0
-7 -4 -4 -10z"/>
<path d="M10200 3235 c0 -8 4 -15 10 -15 5 0 7 7 4 15 -4 8 -8 15 -10 15 -2 0
-4 -7 -4 -15z"/>
<path d="M6904 2614 c-24 -57 -84 -225 -84 -235 0 -13 197 -11 205 1 5 8 -24
101 -77 243 -14 36 -26 34 -44 -9z"/>
<path d="M9425 2666 c-83 -36 -130 -127 -123 -235 9 -125 80 -191 204 -191 85
0 135 26 177 88 75 112 31 279 -88 333 -47 22 -127 24 -170 5z"/>
<path d="M10200 2620 c6 -11 13 -20 16 -20 2 0 0 9 -6 20 -6 11 -13 20 -16 20
-2 0 0 -9 6 -20z"/>
</g>
</svg>
